<?xml version="1.0" encoding="UTF-8"?>
<svg xmlns="http://www.w3.org/2000/svg" viewBox="0 0 48 48" width="48" height="48" aria-hidden="true">
  <title>Google G Logo</title>
  <path fill="#FFC107" d="M43.6 20.5H42V20H24v8h11.3C33.8 32.9 29.2 36 24 36c-6.6 0-12-5.4-12-12s5.4-12 12-12c3.1 0 5.9 1.2 8 3.1l5.7-5.7C34.6 6.1 29.6 4 24 4 12.9 4 4 12.9 4 24s8.9 20 20 20c10 0 19-7.3 19-20 0-1.3-.1-2.7-.4-3.9z"/>
  <path fill="#FF3D00" d="M6.3 14.7l6.6 4.8C14.6 16.2 19 12 24 12c3.1 0 5.9 1.2 8 3.1l5.7-5.7C34.6 6.1 29.6 4 24 4 15.3 4 7.9 8.9 6.3 14.7z"/>
  <path fill="#4CAF50" d="M24 44c5 0 9.6-1.9 13-5l-6-4.9C29.2 36 26.7 37 24 37c-5.1 0-9.4-3.3-11-7.9l-6.6 5C7.9 39.1 15.3 44 24 44z"/>
  <path fill="#1976D2" d="M43.6 20.5H42V20H24v8h11.3C34.8 32.9 30.6 36 24 36c-5.1 0-9.4-3.3-11-7.9l-6.6 5C7.9 39.1 15.3 44 24 44c10 0 19-7.3 19-20 0-1.3-.1-2.7-.4-3.9z"/>
</svg>
